<?xml version="1.0" encoding="iso-8859-1"?>
<!-- Generator: Adobe Illustrator 16.0.0, SVG Export Plug-In . SVG Version: 6.00 Build 0)  -->
<!DOCTYPE svg PUBLIC "-//W3C//DTD SVG 1.1//EN" "http://www.w3.org/Graphics/SVG/1.1/DTD/svg11.dtd">
<svg version="1.1" id="Capa_1" xmlns="http://www.w3.org/2000/svg" xmlns:xlink="http://www.w3.org/1999/xlink" x="0px" y="0px"
	 width="29.872px" height="29.872px" viewBox="0 0 29.872 29.872" style="enable-background:new 0 0 29.872 29.872;"
	 xml:space="preserve">
<g>
	<g>
		<path d="M26.761,15.56L16.861,5.66c-0.829-0.83-2.17-1.3-3.335-1.171L9.814,4.902l0.548-3.758
			c0.079-0.546-0.299-1.054-0.846-1.134C8.97-0.068,8.462,0.308,8.382,0.855L7.759,5.13L5.965,5.329
			c-1.386,0.155-2.714,1.481-2.87,2.872l-0.839,7.558c-0.13,1.166,0.34,2.507,1.17,3.337l9.899,9.899
			c1.17,1.169,3.072,1.169,4.242,0l9.192-9.191C27.93,18.633,27.93,16.729,26.761,15.56z M7.878,11.245
			c0.324,0.047,0.636-0.066,0.852-0.283c0.147-0.146,0.25-0.34,0.282-0.562L9.26,8.697c0.06,0.047,0.122,0.089,0.177,0.145
			c0.781,0.781,0.78,2.047,0,2.828c-0.781,0.781-2.047,0.782-2.829,0c-0.78-0.78-0.78-2.047,0-2.828
			c0.199-0.199,0.43-0.347,0.675-0.443l-0.25,1.713C6.954,10.658,7.332,11.165,7.878,11.245z M16.315,21.407l-1.012,1.011
			l-2.079-9.803l1.019-1.02L16.315,21.407z M15.974,16.596c-0.016-0.565,0.206-1.077,0.665-1.535
			c0.441-0.442,0.915-0.656,1.421-0.643c0.505,0.015,0.995,0.259,1.472,0.733c0.488,0.489,0.74,1.015,0.758,1.578
			c0.017,0.562-0.203,1.073-0.658,1.529c-0.423,0.422-0.897,0.629-1.424,0.618c-0.525-0.01-1.017-0.24-1.47-0.693
			C16.244,17.689,15.988,17.16,15.974,16.596z M13.581,17.422c0.015,0.562-0.207,1.069-0.662,1.524
			c-0.423,0.423-0.897,0.629-1.424,0.62c-0.526-0.01-1.016-0.241-1.469-0.694c-0.494-0.494-0.749-1.023-0.765-1.589
			c-0.015-0.564,0.207-1.076,0.665-1.535c0.439-0.438,0.914-0.65,1.424-0.636c0.51,0.015,1.002,0.26,1.477,0.735
			C13.316,16.336,13.567,16.861,13.581,17.422z M26.054,19.095l-9.192,9.191c-0.779,0.78-2.048,0.78-2.828,0l-9.899-9.898
			c-0.606-0.607-0.979-1.666-0.883-2.52l0.838-7.556c0.054-0.471,0.292-0.939,0.672-1.319c0.38-0.38,0.849-0.618,1.316-0.67
			l1.533-0.17L7.462,7.176L6.189,7.316C5.642,7.377,5.145,7.874,5.085,8.421l-0.839,7.559c-0.062,0.547,0.207,1.312,0.596,1.701
			l9.899,9.898c0.389,0.39,1.024,0.39,1.413,0l9.192-9.191c0.39-0.39,0.39-1.025,0-1.414l-9.898-9.899
			c-0.389-0.389-1.154-0.658-1.701-0.596L9.518,6.947l0.148-1.021l3.972-0.441c0.852-0.095,1.911,0.276,2.518,0.883l9.899,9.899
			C26.833,17.046,26.833,18.315,26.054,19.095z"/>
		<path d="M18.951,17.479c0.393-0.393,0.312-0.864-0.24-1.417c-0.257-0.257-0.509-0.403-0.754-0.439
			c-0.246-0.036-0.455,0.032-0.626,0.203c-0.4,0.4-0.32,0.881,0.239,1.442C18.101,17.8,18.561,17.869,18.951,17.479z"/>
		<path d="M10.631,16.502c-0.403,0.403-0.325,0.886,0.236,1.446c0.53,0.53,0.987,0.604,1.371,0.22
			c0.392-0.392,0.312-0.864-0.24-1.417C11.459,16.212,11.004,16.129,10.631,16.502z"/>
	</g>
</g>
<g>
</g>
<g>
</g>
<g>
</g>
<g>
</g>
<g>
</g>
<g>
</g>
<g>
</g>
<g>
</g>
<g>
</g>
<g>
</g>
<g>
</g>
<g>
</g>
<g>
</g>
<g>
</g>
<g>
</g>
</svg>
