<?xml version="1.0" encoding="utf-8"?>
<!-- Uploaded to SVGRepo https://www.svgrepo.com -->
<svg version="1.1" id="Layer_1" xmlns="http://www.w3.org/2000/svg" xmlns:xlink="http://www.w3.org/1999/xlink" x="0px" y="0px"
	 width="256px" height="253px" viewBox="0 0 256 253" enable-background="new 0 0 256 253" xml:space="preserve">
<path d="M128.54,167.164v2.443h-4.04v-2.584c-2.161-0.423-4.134-1.409-5.966-2.96l3.054-3.148c0,0,2.208,1.832,4.322,2.114
	c2.396,0.329,3.899-0.752,4.04-2.161c0.329-2.631-5.215-3.664-7.235-4.651c-2.396-1.221-4.792-2.819-4.792-6.248
	c0-3.523,2.631-6.06,6.577-6.342v-2.631h4.087v2.772c2.537,0.517,4.322,1.738,5.684,2.725l-2.772,3.382
	c-0.893-0.752-2.49-1.691-3.993-2.02c-1.926-0.47-4.04,0.047-4.181,2.02c-0.094,0.799,0.282,2.396,4.51,3.617
	c2.255,0.658,7.423,2.114,7.423,7.141C135.258,164.016,132.393,166.741,128.54,167.164z M163.305,181.915l-6.483,11.698l5.262,9.537
	c0.376-0.282,0.752-0.517,1.174-0.752c2.631-1.503,5.684-1.691,8.691-0.611c2.866,1.034,5.262,3.148,6.812,5.919
	c3.289,5.919,1.597,13.06-3.711,16.02c-5.684,3.101-12.59-0.047-15.55-5.356c-1.174-2.161-1.597-4.51-1.644-6.671
	c-0.047-2.302-0.282-4.087-1.268-5.919c-1.034-1.832-2.49-3.289-4.275-4.181c-1.785,0.893-3.242,2.349-4.275,4.181
	c-0.987,1.785-1.221,3.617-1.268,5.919c-0.047,2.161-0.47,4.557-1.644,6.671c-2.96,5.309-9.913,8.503-15.55,5.356
	c-5.309-2.96-6.953-10.147-3.711-16.02c1.55-2.772,3.946-4.886,6.812-5.919c2.96-1.034,6.06-0.846,8.691,0.611
	c0.423,0.235,0.799,0.47,1.174,0.752l5.262-9.537l-6.483-11.698H72.823v-52.992h77.421v52.945l2.02,3.617l16.771-30.301l0.188,0.47
	c2.255,5.731,1.832,12.121-1.174,17.523l-1.738,3.101h11.275v-41.764h-22.644v-5.59h28.234v52.992H163.305z M138.735,207.049
	c-3.054-1.691-6.671,0.47-8.221,3.242c-1.785,3.289-1.081,7.188,1.644,8.691c2.725,1.503,6.389,0.047,8.221-3.242
	C142.164,212.451,141.459,208.552,138.735,207.049z M96.313,169.936H84.85v-4.745h-3.289v7.986h14.751V169.936z M96.313,137.708
	H81.514v7.986h3.289v-4.745h11.51V137.708z M143.245,155.278c0-10.241-7.47-18.557-16.631-18.557
	c-9.208,0-16.631,8.315-16.631,18.557c0,10.241,7.47,18.557,16.631,18.557S143.245,165.52,143.245,155.278z M164.15,215.74
	c1.832,3.289,5.497,4.745,8.221,3.242c2.725-1.503,3.476-5.403,1.644-8.691c-1.503-2.772-5.121-4.933-8.221-3.242
	C163.07,208.552,162.318,212.451,164.15,215.74z M154.942,117.413h-4.651v7.986h4.651V117.413z M154.942,104.682h-4.651v7.986h4.651
	V104.682z M2,69c0,13.678,9.625,25.302,22,29.576V233H2v18h252v-18h-22V98.554c12.89-3.945,21.699-15.396,22-29.554v-8H2V69z
	 M65.29,68.346c0,6.477,6.755,31.47,31.727,31.47c21.689,0,31.202-19.615,31.202-31.47c0,11.052,7.41,31.447,31.464,31.447
	c21.733,0,31.363-20.999,31.363-31.447c0,14.425,9.726,26.416,22.954,30.154V233H42V98.594C55.402,94.966,65.29,82.895,65.29,68.346
	z M222.832,22H223V2H34v20L2,54h252L222.832,22z"/>
</svg>
